{"title":"Short Term 12 - Short Film (Runtime Apox. 21 Min.)","uid":6166354,"size":983040046,"categoryP":"video","categoryS":"movies","magnet":"?xt=urn:btih:7c504b1c5f5b8f89cb206a827b8a363ebe90dfee&amp;dn=Short+Term+12+-+Short+Film+%28Runtime+Apox.+21+Min.%29&amp;tr=udp%3A%2F%2Ftracker.openbittorrent.com%3A80&amp;tr=udp%3A%2F%2Fopen.demonii.com%3A1337&amp;tr=udp%3A%2F%2Ftracker.coppersurfer.tk%3A6969&amp;tr=udp%3A%2F%2Fexodus.desync.com%3A6969","seeders":0,"leechers":2,"uploader":"michaelmotes","files":3,"time":1297402604,"description":"See the following link for more information: &lt;a href=&quot;\nhttp://www.imdb.com/title/tt1299384/&quot; rel=&quot;nofollow&quot; target=&quot;_NEW&quot;&gt;\nhttp://www.imdb.com/title/tt1299384/&lt;/a&gt;\n\nFormat                           : MPEG-PS\nFile size                        : 937 MiB\nDuration                         : 21mn 43s\nOverall bit rate                 : 6 033 Kbps\nWriting library                  : encoded by TMPGEnc 4.0 XPress Version. 4.7.3.292\n\nVideo\nID                               : 224 (0xE0)\nFormat                           : MPEG Video\nFormat version                   : Version 2\nFormat profile                   : Main@Main\nFormat settings, BVOP            : No\nFormat settings, Matrix          : Default\nFormat settings, GOP             : M=1, N=15\nDuration                         : 21mn 43s\nBit rate mode                    : Variable\nBit rate                         : 5 465 Kbps\nNominal bit rate                 : 14.5 Mbps\nWidth                            : 544 pixels\nHeight                           : 480 pixels\nDisplay aspect ratio             : 16:9\nFrame rate                       : 29.970 fps\nStandard                         : NTSC\nColor space                      : YUV\nChroma subsampling               : 4:2:0\nBit depth                        : 8 bits\nScan type                        : Interlaced\nScan order                       : Top Field First\nCompression mode                 : Lossy\nBits/(Pixel*Frame)               : 0.698\nStream size                      : 849 MiB (91%)\nWriting library                  : TMPGEnc XPress 4.7.3.292\n\nAudio\nID                               : 128 (0x80)\nFormat                           : AC-3\nFormat/Info                      : Audio Coding 3\nMode extension                   : CM (complete main)\nDuration                         : 21mn 43s\nBit rate mode                    : Constant\nBit rate                         : 448 Kbps\nChannel(s)                       : 2 channels\nChannel positions                : Front: L R\nSampling rate                    : 48.0 KHz\nBit depth                        : 16 bits\nCompression mode                 : Lossy\nStream size                      : 69.6 MiB (7%)\n\n","torrent":{"xt":"urn:btih:7c504b1c5f5b8f89cb206a827b8a363ebe90dfee","amp;dn":"Short+Term+12+-+Short+Film+%28Runtime+Apox.+21+Min.%29","amp;tr":["udp%3A%2F%2Ftracker.openbittorrent.com%3A80","udp%3A%2F%2Fopen.demonii.com%3A1337","udp%3A%2F%2Ftracker.coppersurfer.tk%3A6969","udp%3A%2F%2Fexodus.desync.com%3A6969"],"infoHash":"7c504b1c5f5b8f89cb206a827b8a363ebe90dfee","infoHashBuffer":{"type":"Buffer","data":[124,80,75,28,95,91,143,137,203,32,106,130,123,138,54,62,190,144,223,238]},"announce":[],"urlList":[]}}